# Blender v2.71 (sub 0) OBJ File: 'blockbase.blend'
# www.blender.org
v -8.000000 -8.000000 -4.000000
v -8.000000 8.000000 -4.000000
v 8.000000 8.000000 -4.000000
v 8.000000 -8.000000 -4.000000
v -8.000000 -8.000000 4.000000
v -8.000000 8.000000 4.000000
v 8.000000 8.000000 4.000000
v 8.000000 -8.000000 4.000000
vt 0.750053 0.249990
vt 0.500096 0.249989
vt 0.500097 0.125011
vt 0.750054 0.125011
vt 0.250140 0.249989
vt 0.250140 0.125011
vt 0.000184 0.249989
vt 0.000184 0.125011
vt 1.000010 0.249990
vt 1.000011 0.125012
vt 0.500098 0.000032
vt 0.250141 0.000032
vt 0.250139 0.374967
vt 0.500096 0.374967
vn -1.000000 0.000000 0.000000
vn 0.000000 1.000000 0.000000
vn 1.000000 0.000000 0.000000
vn 0.000000 -1.000000 0.000000
vn 0.000000 0.000000 -1.000000
vn 0.000000 0.000000 1.000000
s off
f 5/1/1 6/2/1 2/3/1 1/4/1
f 6/2/2 7/5/2 3/6/2 2/3/2
f 7/5/3 8/7/3 4/8/3 3/6/3
f 8/9/4 5/1/4 1/4/4 4/10/4
f 1/11/5 2/3/5 3/6/5 4/12/5
f 8/13/6 7/5/6 6/2/6 5/14/6
